<svg xmlns="http://www.w3.org/2000/svg" version="1.1" xmlns:xlink="http://www.w3.org/1999/xlink" width="512" height="512" x="0" y="0" viewBox="0 0 24 24" style="enable-background:new 0 0 512 512" xml:space="preserve" class=""><g><linearGradient id="a" x1="1" x2="23" y1="11.83" y2="11.83" gradientUnits="userSpaceOnUse"><stop stop-opacity="1" stop-color="#8bb9dc" offset="0.4111969111969112"></stop><stop stop-opacity="1" stop-color="#4a4f51" offset="0.747104247104247"></stop></linearGradient><path fill="url(#a)" d="M3.8 13H10v2H3.8A2.76 2.76 0 0 1 1 12.29V3.71A2.76 2.76 0 0 1 3.8 1h14.4A2.76 2.76 0 0 1 21 3.71V9h-2V3.71a.76.76 0 0 0-.8-.71H3.8a.76.76 0 0 0-.8.71v8.58a.76.76 0 0 0 .8.71zm10.65-5.89a1 1 0 0 1 0 1.78l-6 3A1 1 0 0 1 8 12a1 1 0 0 1-.53-.15A1 1 0 0 1 7 11V5a1 1 0 0 1 1.45-.89zM11.76 8 9 6.62v2.76zm9.76 11.93 1.23 1.41-1.5 1.32L20 21.2a5.93 5.93 0 0 1-3 .8 6 6 0 1 1 4.52-2.07zM17 20a4 4 0 1 0-4-4 4 4 0 0 0 4 4z" data-name="31 Find Video, Camera, Find" opacity="1" data-original="url(#a)" class=""></path></g></svg>