<svg xmlns="http://www.w3.org/2000/svg" version="1.1" xmlns:xlink="http://www.w3.org/1999/xlink" width="512" height="512" x="0" y="0" viewBox="0 0 256 256" style="enable-background:new 0 0 512 512" xml:space="preserve" class="hovered-paths"><g><path fill="#efefef" d="M33.978 131.1v115.577a5.163 5.163 0 0 0 5.163 5.163H235.33a5.163 5.163 0 0 0 5.163-5.163V131.1z" opacity="1" data-original="#efefef" class=""></path><path fill="#afafaf" d="M233.207 244.73v7.11H41.127v-7.11c0-15.78 8.97-29.51 22.06-36.37-3.15-4.07-5.04-9.16-5.04-14.7v-11.1c0-13.24 10.78-24.02 24.03-24.02 13.24 0 24.02 10.78 24.02 24.02v11.1c0 5.54-1.89 10.64-5.05 14.71 3.09 1.61 5.96 3.61 8.52 5.93 2.57-2.32 5.43-4.32 8.53-5.94a23.868 23.868 0 0 1-5.04-14.7v-11.1c0-13.24 10.77-24.02 24.02-24.02 13.24 0 24.02 10.78 24.02 24.02v11.1c0 5.54-1.89 10.64-5.05 14.71 3.09 1.61 5.96 3.61 8.52 5.93 2.57-2.32 5.44-4.32 8.53-5.94a23.868 23.868 0 0 1-5.04-14.7v-11.1c0-13.24 10.77-24.02 24.02-24.02s24.02 10.78 24.02 24.02v11.1c0 5.54-1.89 10.64-5.04 14.71 13.09 6.86 22.05 20.58 22.05 36.36z" opacity="1" data-original="#afafaf" class=""></path><path fill="#72c2e9" d="M33.978 131.1V97.915h210.14a5.163 5.163 0 0 1 5.163 5.163v22.859a5.163 5.163 0 0 1-5.163 5.163zM34.002 97.915l-8.29-26.938a5.001 5.001 0 0 1 3.308-6.25l196.064-60.34a5.163 5.163 0 0 1 6.453 3.416l6.724 21.848a5.163 5.163 0 0 1-3.416 6.453z" opacity="1" data-original="#72c2e9" class=""></path><path fill="#4ba5c8" d="m33.997 97.91-8.29-26.93c-.47-1.52-.18-3.09.66-4.3 1.63-.26 3.3-.4 5-.4 14.47 0 26.71 9.77 30.46 23.06zM63.007 97.92c-.01 16.57-12.81 30.19-29.03 31.52V97.92z" opacity="1" data-original="#4ba5c8" class=""></path><path fill="#f0c020" d="M116.205 244.729v7.11H48.129v-7.11c0-18.794 15.232-34.032 34.027-34.038 18.803-.007 34.049 15.235 34.049 34.038z" opacity="1" data-original="#f0c020" class=""></path><path fill="#e8a61e" d="M116.207 244.73v7.11h-20.08v-7.11c0-9.55 3.28-18.35 8.77-25.33 6.94 6.23 11.31 15.27 11.31 25.33z" opacity="1" data-original="#e8a61e"></path><path fill="#ffb69f" d="M99.195 182.564v11.099c0 9.409-7.645 17.022-17.022 17.022-9.317 0-17.022-7.55-17.022-17.022v-11.099c0-9.407 7.628-17.022 17.022-17.022 9.39 0 17.022 7.615 17.022 17.022z" opacity="1" data-original="#ffb69f" class=""></path><path fill="#fc5d3d" d="M226.209 244.729v7.11h-68.077v-7.11c0-18.794 15.232-34.032 34.027-34.038 18.804-.007 34.05 15.235 34.05 34.038z" opacity="1" data-original="#fc5d3d"></path><path fill="#b25035" d="M178.207 244.73v7.11h-20.07v-7.11c0-10.06 4.37-19.11 11.31-25.34a40.906 40.906 0 0 1 8.76 25.34z" opacity="1" data-original="#b25035"></path><path fill="#ffb69f" d="M209.199 182.564v11.099c0 9.409-7.645 17.022-17.022 17.022-9.317 0-17.022-7.55-17.022-17.022v-11.099c0-9.407 7.628-17.022 17.022-17.022 9.39 0 17.022 7.615 17.022 17.022z" opacity="1" data-original="#ffb69f" class=""></path><path fill="#72c2e9" d="M171.207 244.729v7.11H103.13v-7.11c0-18.794 15.232-34.032 34.027-34.038 18.804-.007 34.05 15.235 34.05 34.038z" opacity="1" data-original="#72c2e9" class=""></path><path fill="#ffb69f" d="M154.197 182.564v11.099c0 9.409-7.645 17.022-17.022 17.022-9.317 0-17.022-7.55-17.022-17.022v-11.099c0-9.407 7.628-17.022 17.022-17.022 9.39 0 17.022 7.615 17.022 17.022z" opacity="1" data-original="#ffb69f" class=""></path><circle cx="31.365" cy="97.915" r="24.638" fill="#f0c020" transform="rotate(-67.48 31.396 97.912)" opacity="1" data-original="#f0c020" class=""></circle><path fill="#e8a61e" d="M31.365 113.289c-8.478 0-15.375-6.896-15.375-15.374s6.897-15.374 15.375-15.374c8.477 0 15.374 6.896 15.374 15.374s-6.897 15.374-15.374 15.374z" opacity="1" data-original="#e8a61e"></path><path fill="#fc5d3d" d="M31.365 106.289c-4.618 0-8.374-3.757-8.374-8.374 0-4.618 3.757-8.374 8.374-8.374s8.374 3.757 8.374 8.374-3.756 8.374-8.374 8.374z" opacity="1" data-original="#fc5d3d"></path><path d="M41.541 33.507c-3.729-1.228-6.641-2.022-8.591-10.421-.635-2.737-4.548-2.73-5.181 0-1.907 8.213-4.566 9.092-8.591 10.422-2.424.801-2.43 4.248 0 5.051 6.686 2.209 7.444 5.476 8.591 10.421.637 2.743 4.545 2.742 5.182 0 1.905-8.212 4.709-9.139 8.591-10.421 2.423-.802 2.429-4.249-.001-5.052z" fill="#000000" opacity="1" data-original="#000000" class="hovered-path"></path><path fill="#f0c020" d="M34.344 36.062c-1.47 1.03-2.79 2.42-3.93 4.43-.94-1.58-2.25-3.08-4.17-4.4 1.55-1.06 2.94-2.5 4.13-4.64 1.2 2.16 2.56 3.6 3.97 4.61z" opacity="1" data-original="#f0c020" class=""></path><path d="M223.111 69.199c-3.729-1.228-6.641-2.022-8.591-10.421-.635-2.737-4.548-2.73-5.181 0-1.907 8.213-4.566 9.092-8.591 10.422-2.424.801-2.43 4.248 0 5.051 6.686 2.209 7.444 5.476 8.591 10.421.637 2.743 4.545 2.742 5.182 0 1.905-8.212 4.709-9.139 8.591-10.421 2.423-.802 2.429-4.25-.001-5.052z" fill="#000000" opacity="1" data-original="#000000" class="hovered-path"></path><path fill="#f0c020" d="M215.914 71.753c-1.47 1.03-2.79 2.42-3.93 4.43-.94-1.58-2.25-3.08-4.17-4.4 1.55-1.06 2.94-2.5 4.13-4.64 1.2 2.16 2.56 3.6 3.97 4.61z" opacity="1" data-original="#f0c020" class=""></path><path fill="#b7e5ff" d="M239.28 123.6h-3a2.5 2.5 0 1 1 0-5h3a2.5 2.5 0 1 1 0 5zm-13 0H67.239a2.5 2.5 0 1 1 0-5H226.28a2.5 2.5 0 1 1 0 5zM58.45 66.133a2.5 2.5 0 0 1 1.653-3.125l2.867-.883a2.5 2.5 0 0 1 1.472 4.779l-2.867.883a2.5 2.5 0 0 1-3.125-1.654zm12.425-3.825a2.5 2.5 0 0 1 1.654-3.125l150.138-46.205a2.5 2.5 0 0 1 1.471 4.779L74 63.963a2.5 2.5 0 0 1-3.125-1.655z" opacity="1" data-original="#b7e5ff" class=""></path><path fill="#ffffff" d="M230.492 143.6H56.978a2.5 2.5 0 1 1 0-5h173.515a2.5 2.5 0 1 1-.001 5zm-183.514 0h-3a2.5 2.5 0 1 1 0-5h3a2.5 2.5 0 1 1 0 5z" opacity="1" data-original="#ffffff" class=""></path><path d="M222.143 228.398a2.503 2.503 0 0 0 .75-3.46c-.72-1.12-2.33-1.47-3.46-.739-1.16.75-1.49 2.3-.74 3.46a2.497 2.497 0 0 0 3.45.739z" fill="#000000" opacity="1" data-original="#000000" class="hovered-path"></path><circle cx="33.973" cy="187.678" r="2.5" fill="#000000" opacity="1" data-original="#000000" class="hovered-path"></circle><path d="M10.603 111.428a2.498 2.498 0 0 0-.37 3.51c.896 1.103 2.484 1.22 3.51.38a2.492 2.492 0 0 0 .39-3.5c0-.01-.01-.01-.01-.01-.83-1.04-2.48-1.219-3.52-.38z" fill="#000000" opacity="1" data-original="#000000" class="hovered-path"></path><path d="M4.223 97.919c0 2.47.34 4.93 1 7.3.386 1.388 1.854 2.117 3.08 1.73 1.325-.352 2.1-1.755 1.73-3.07a22.517 22.517 0 0 1-.809-5.934l.003-.03c0-12.207 9.931-22.138 22.138-22.138s22.138 9.931 22.138 22.138c0 12.205-9.927 22.134-22.131 22.138-.002-.002-.005-.005-.01-.005-3.66 0-7.14-.86-10.36-2.56-1.208-.638-2.729-.191-3.37 1.029a2.501 2.501 0 0 0 1.03 3.391 27.225 27.225 0 0 0 12.814 3.142c0 4.267-.004-.475-.004 52.628 0 1.38 1.13 2.5 2.5 2.5a2.5 2.5 0 0 0 2.5-2.5v-44.079h163.65l.01.001.01-.001h37.853v113.08a2.668 2.668 0 0 1-2.67 2.66h-6.617l-.007-4.611c0-3.41-.47-6.79-1.39-10.04-.38-1.3-1.8-2.09-3.1-1.72a2.5 2.5 0 0 0-1.71 3.09c.8 2.811 1.2 5.73 1.2 8.67v4.611h-49.996v-4.61c0-7.201-2.075-14.081-5.932-19.966 5.951-7.267 14.937-11.564 24.382-11.573h.02v-.002h.006c7.48 0 14.73 2.67 20.42 7.521a2.528 2.528 0 0 0 3.53-.28 2.512 2.512 0 0 0-.28-3.53 36.421 36.421 0 0 0-12.781-7.044c5.2-3.511 8.627-9.458 8.627-16.191v-11.099c0-10.765-8.757-19.522-19.522-19.522s-19.522 8.758-19.522 19.522v11.099c0 6.741 3.436 12.694 8.647 16.204a36.686 36.686 0 0 0-16.62 10.833 38.166 38.166 0 0 0-1.681-1.811c-4.244-4.243-9.349-7.307-14.918-9.042 5.193-3.512 8.614-9.456 8.614-16.183v-11.099c0-10.765-8.757-19.522-19.522-19.522s-19.522 8.758-19.522 19.522v11.099c0 6.73 3.424 12.676 8.621 16.188-6.5 2.035-12.218 5.847-16.6 10.857a36.743 36.743 0 0 0-16.629-10.839c5.213-3.509 8.65-9.463 8.65-16.206v-11.099c0-10.765-8.757-19.522-19.522-19.522s-19.522 8.758-19.522 19.522v11.099c0 6.731 3.424 12.677 8.622 16.188C56.43 214.5 45.627 228.38 45.627 244.73v4.609h-6.49a2.663 2.663 0 0 1-2.66-2.66c0-.013-.004-.025-.004-.039v-48.962a2.5 2.5 0 0 0-2.5-2.5c-1.37 0-2.5 1.12-2.5 2.5v49c0 .026.007.05.008.076.041 4.189 3.458 7.585 7.656 7.585h196.19c4.229 0 7.67-3.437 7.67-7.66v-113.08h1.12c4.224 0 7.66-3.436 7.66-7.659v-22.86c0-4.224-3.436-7.66-7.66-7.66H58.384a27.178 27.178 0 0 0-.313-2.3l177.506-54.629c4.042-1.233 6.32-5.517 5.07-9.576l-6.721-21.853c-1.247-4.036-5.542-6.303-9.574-5.063L28.284 62.34a7.498 7.498 0 0 0-4.967 9.374l.08.259C12.323 75.381 4.249 85.697 4.228 97.868c0 .017-.005.033-.005.051zm173.432 95.744v-11.099c0-8.008 6.515-14.522 14.522-14.522s14.522 6.515 14.522 14.522v11.099c0 8.008-6.515 14.522-14.522 14.522s-14.522-6.514-14.522-14.522zm-55.002 0v-11.099c0-8.008 6.515-14.522 14.522-14.522s14.522 6.515 14.522 14.522v11.099c0 8.008-6.515 14.522-14.522 14.522s-14.522-6.514-14.522-14.522zm-55.002 0v-11.099c0-8.008 6.515-14.522 14.522-14.522s14.522 6.515 14.522 14.522v11.099c0 8.008-6.515 14.522-14.522 14.522s-14.522-6.514-14.522-14.522zm32.98 55.677H50.627v-4.609c0-17.382 14.145-31.531 31.55-31.54 9.443 0 18.439 4.303 24.407 11.586a36.315 36.315 0 0 0-5.953 19.953zm68.076 0h-63.076v-4.61c0-17.385 14.143-31.532 31.527-31.538h.012c17.424 0 31.537 14.1 31.537 31.538zm65.643-148.92h9.768a2.663 2.663 0 0 1 2.66 2.66v22.86a2.662 2.662 0 0 1-2.66 2.659H206.17zm-42.781 0h35.71l-28.18 28.18h-35.71zm-42.78 0h35.71L156.32 128.6h-35.71zm-42.781 0h35.71l-28.179 28.18h-35.71zm-47.625 0h40.555L70.759 128.6H36.477v-4.036c11.727-2.245 20.794-12.058 21.906-24.144zM216.487 9.652l9.337-2.874a2.661 2.661 0 0 1 3.323 1.756l6.72 21.852a2.65 2.65 0 0 1-1.756 3.324l-36.268 11.162zM175.6 22.235l34.129-10.503-18.643 35.22-34.129 10.504zm-40.888 12.583 34.129-10.503-18.644 35.22-34.129 10.504zM93.823 47.402l34.13-10.504-18.643 35.22-34.13 10.505zM29.752 67.12l57.312-17.638-18.643 35.22-11.684 3.596c-3.891-10.23-13.794-17.521-25.372-17.521a27.2 27.2 0 0 0-3.051.176l-.217-.707a2.499 2.499 0 0 1 1.655-3.126z" fill="#000000" opacity="1" data-original="#000000" class="hovered-path"></path><path d="M31.365 108.789c5.996 0 10.874-4.878 10.874-10.874S37.361 87.04 31.365 87.04 20.49 91.919 20.49 97.915s4.879 10.874 10.875 10.874zm0-16.749c3.239 0 5.874 2.636 5.874 5.875s-2.635 5.874-5.874 5.874-5.875-2.635-5.875-5.874 2.636-5.875 5.875-5.875z" fill="#000000" opacity="1" data-original="#000000" class="hovered-path"></path></g></svg>