<svg xmlns="http://www.w3.org/2000/svg" version="1.1" xmlns:xlink="http://www.w3.org/1999/xlink" width="512" height="512" x="0" y="0" viewBox="0 0 62 62" style="enable-background:new 0 0 512 512" xml:space="preserve"><g><path fill="#ccd1d9" d="M27 3h26v16H27z" opacity="1" data-original="#ccd1d9"></path><path fill="#d3a06c" d="M55.95 58.58c.12.52.02 1.05-.27 1.5-.37.58-1 .92-1.68.92-.39 0-.76-.11-1.09-.32L40 50.65l3.38-2.62 11.7 9.29c.45.29.76.73.87 1.26z" opacity="1" data-original="#d3a06c"></path><path fill="#d3a06c" d="m55 39-11.62 9.03L40 50.65 27.08 60.68c-.32.21-.69.32-1.08.32-.68 0-1.31-.34-1.68-.92a1.94 1.94 0 0 1-.27-1.5c.11-.53.42-.97.87-1.26l11.7-9.29L40 45.35 48 39z" opacity="1" data-original="#d3a06c"></path><path fill="#d3a06c" d="m40 45.35-3.38 2.68L25 39h7z" opacity="1" data-original="#d3a06c"></path><path fill="#cf9e76" d="M59 33c1.1 0 2 .9 2 2s-.45 2.1-1.17 2.83C59.1 38.55 58.1 39 57 39H23c-2.21 0-4-1.79-4-4 0-.55.22-1.05.59-1.41.36-.37.86-.59 1.41-.59h32z" opacity="1" data-original="#cf9e76"></path><path fill="#d3a06c" d="M59 3v20h-6V3c0-1.1.9-2 2-2h2c1.1 0 2 .9 2 2zM53 27h6v6h-6zM21 27h6v6h-6zM27 19v4h-6V3c0-1.1.9-2 2-2h2c1.1 0 2 .9 2 2z" opacity="1" data-original="#d3a06c"></path><path fill="#b27946" d="M59 23c1.1 0 2 .9 2 2 0 .55-.22 1.05-.59 1.41-.36.37-.86.59-1.41.59h-6c-1.1 0-2-.9-2-2 0-.55.22-1.05.59-1.41.36-.37.86-.59 1.41-.59zM27 23c1.1 0 2 .9 2 2 0 .55-.22 1.05-.59 1.41-.36.37-.86.59-1.41.59h-6c-1.1 0-2-.9-2-2 0-.55.22-1.05.59-1.41.36-.37.86-.59 1.41-.59z" opacity="1" data-original="#b27946"></path><path fill="#fc6e51" d="M15 36v2c0 .55-.45 1-1 1H4c-.55 0-1-.45-1-1v-2c0-.55.45-1 1-1h10c.55 0 1 .45 1 1z" opacity="1" data-original="#fc6e51"></path><path fill="#ff826e" d="M15.55 53 17 61H1l4-22h8l.73 4z" opacity="1" data-original="#ff826e"></path><path d="M60 32.184v-4.369c1.161-.414 2-1.514 2-2.816s-.839-2.402-2-2.816V3c0-1.654-1.346-3-3-3h-2a2.996 2.996 0 0 0-2.816 2H27.816A2.996 2.996 0 0 0 25 0h-2c-1.654 0-3 1.346-3 3v19.184c-1.161.414-2 1.514-2 2.816s.839 2.402 2 2.816v4.369a2.996 2.996 0 0 0-2 2.816c0 2.757 2.243 5 5 5h1.657l10.349 8.037-10.672 8.47a2.973 2.973 0 0 0-1.265 1.855 2.985 2.985 0 0 0 .408 2.261 2.993 2.993 0 0 0 2.524 1.377c.581 0 1.145-.167 1.697-.53L40 51.916l12.369 9.602a2.986 2.986 0 0 0 1.63.482 2.995 2.995 0 0 0 2.526-1.379 2.976 2.976 0 0 0 .406-2.258 2.96 2.96 0 0 0-1.265-1.856l-10.672-8.47L55.343 40H57c2.757 0 5-2.243 5-5a2.995 2.995 0 0 0-2-2.816zM26 28v4h-4v-4zm2-.184c1.161-.414 2-1.514 2-2.816s-.839-2.402-2-2.816V20h24v2.184c-1.161.414-2 1.514-2 2.816s.839 2.402 2 2.816V32H28zM52 18H28V4h24zm2 10h4v4h-4zm5-2h-6a1.001 1.001 0 0 1 0-2h6a1.001 1.001 0 0 1 0 2zM55 2h2c.551 0 1 .448 1 1v19h-4V3c0-.552.449-1 1-1zM23 2h2c.551 0 1 .448 1 1v19h-4V3c0-.552.449-1 1-1zm-2 22h6a1.001 1.001 0 0 1 0 2h-6a1.001 1.001 0 0 1 0-2zm6.918 16h3.733l6.74 5.35-1.773 1.407zM40 44.073 34.868 40h10.264zm14.459 14.029.083.06a.985.985 0 0 1 .435.627.991.991 0 0 1-.134.751c-.187.288-.502.46-.844.46-.193 0-.379-.055-.471-.11L41.63 50.65l1.738-1.35zm-27.919 1.74c-.441.288-1.093.148-1.381-.301a.996.996 0 0 1 .299-1.38L48.348 40h3.734zM57 38H23c-1.654 0-3-1.346-3-3 0-.552.449-1 1-1h38c.551 0 1 .448 1 1 0 1.654-1.346 3-3 3z" fill="#000000" opacity="1" data-original="#000000"></path><path d="M18 42h-3.438l-.367-2.02A1.995 1.995 0 0 0 16 38v-2c0-1.103-.897-2-2-2H4c-1.103 0-2 .897-2 2v2c0 1.036.795 1.881 1.805 1.98L.016 60.821A.998.998 0 0 0 1 62h16c.296 0 .578-.132.768-.359s.27-.527.216-.819L16.744 54H18c1.654 0 3-1.346 3-3v-6c0-1.654-1.346-3-3-3zM4 36h10l.001 2H4zM2.198 60l3.636-20h6.331l3.636 20zM19 51c0 .552-.449 1-1 1h-1.62l-1.455-8H18c.551 0 1 .448 1 1zM30 6h2v2h-2zM34 6h16v2H34z" fill="#000000" opacity="1" data-original="#000000"></path></g></svg>