<svg xmlns="http://www.w3.org/2000/svg" version="1.1" xmlns:xlink="http://www.w3.org/1999/xlink" width="512" height="512" x="0" y="0" viewBox="0 0 512 512" style="enable-background:new 0 0 512 512" xml:space="preserve" class=""><g><path d="M504.5 500.5v-395c0-5.523-4.477-10-10-10h-50l-10.856 11.112H86.162L67.5 95.5h-50c-5.523 0-10 4.477-10 10v395a4 4 0 0 0 4 4h31l13.168-6.547 398.78.376L469.5 504.5h31a4 4 0 0 0 4-4z" style="" fill="#948393" data-original="#948393" class=""></path><path d="M78.356 130.638H42.5a5 5 0 0 0-5 5v20a5 5 0 0 0 5 5h35.856v-30zM78.356 195.638H42.5a5 5 0 0 0-5 5v20a5 5 0 0 0 5 5h35.856v-30zM78.356 260.638H42.5a5 5 0 0 0-5 5v20a5 5 0 0 0 5 5h35.856v-30zM78.356 325.638H42.5a5 5 0 0 0-5 5v20a5 5 0 0 0 5 5h35.856v-30zM78.356 390.638H42.5a5 5 0 0 0-5 5v20a5 5 0 0 0 5 5h25l10.856-30zM433.644 130.638H469.5a5 5 0 0 1 5 5v20a5 5 0 0 1-5 5h-35.856v-30zM433.644 195.638H469.5a5 5 0 0 1 5 5v20a5 5 0 0 1-5 5h-35.856v-30zM433.644 260.638H469.5a5 5 0 0 1 5 5v20a5 5 0 0 1-5 5h-35.856v-30zM433.644 325.638H469.5a5 5 0 0 1 5 5v20a5 5 0 0 1-5 5h-35.856v-30zM433.644 390.638H469.5a5 5 0 0 1 5 5v20a5 5 0 0 1-5 5h-25l-10.856-30z" style="" fill="#7c6c79" data-original="#7c6c79"></path><path d="M434.5 412.87V103.789l-10-8.289h-357v325.138h357z" style="" fill="#f5f8f9" data-original="#f5f8f9" class=""></path><path d="M424.5 95.5h20v325.138h-20z" style="" fill="#e8edf2" data-original="#e8edf2"></path><path d="M469.5 504.5h-25l-10.103-15 10.103-15h25a5 5 0 0 1 5 5v20a5 5 0 0 1-5 5zM67.5 504.5h-25a5 5 0 0 1-5-5v-20a5 5 0 0 1 5-5h25l10.004 15-10.004 15z" style="" fill="#7c6c79" data-original="#7c6c79"></path><path d="M67.5 504.5v-15l8.121-9.242 361.788-.376 1.129 17.694L424.5 504.5z" style="" fill="#f5f8f9" data-original="#f5f8f9" class=""></path><path d="M444.5 474.5v30h-20v-8a7 7 0 0 0-7-7h-350v-15h377z" style="" fill="#e8edf2" data-original="#e8edf2"></path><path d="M309.892 271.834a58.647 58.647 0 0 1-50.076 18.226c-50.932-6.273-95.126-38.136-117.171-84.477L90.8 96.595a10.004 10.004 0 0 1 2.815-12.134C150.144 39.6 219.455 13.024 291.23 8.15c0 0 4.919 3.955 9.729 3.824a10.004 10.004 0 0 1 9.956 7.486l24.565 114.268c12.9 49.668 9.395 100.562-25.588 138.106z" style="" fill="#ceec7b" data-original="#ceec7b"></path><path d="M309.89 271.83a58.627 58.627 0 0 1-50.07 18.23c-1.36-.17-2.72-.35-4.08-.56a58.636 58.636 0 0 0 32.15-17.67c34.99-37.54 48.36-90.36 35.46-140.03L291.23 8.15c4.59-.31 9.2-.52 13.82-.65h.26c4.55 0 8.55 3.06 9.7 7.49l30.34 116.81c12.9 49.67-.47 102.49-35.46 140.03z" style="" fill="#aae76c" data-original="#aae76c"></path><path d="M295.867 104.925a12.45 12.45 0 0 1-7.715.265 22.384 22.384 0 0 0-24.788 9.022c-3.862 5.725-11.634 7.236-17.361 3.374-5.726-3.862-7.237-11.634-3.374-17.361a47.332 47.332 0 0 1 52.416-19.078c6.64 1.904 10.478 8.829 8.574 15.468a12.486 12.486 0 0 1-7.752 8.31zM201.856 139.143a12.45 12.45 0 0 1-7.715.265 22.383 22.383 0 0 0-24.788 9.022c-3.862 5.725-11.634 7.236-17.361 3.374-5.726-3.862-7.237-11.634-3.374-17.361a47.333 47.333 0 0 1 52.416-19.078c6.64 1.904 10.478 8.829 8.574 15.468a12.488 12.488 0 0 1-7.752 8.31z" style="" fill="#aae76c" data-original="#aae76c"></path><path d="M168.067 361.415a58.62 58.62 0 0 0 9.613 11.355c9.926 9.078 27.737 10.115 41.47 10.83 51.247 2.666 87.42-23.415 117.176-65.223l72.706-91.765a10.005 10.005 0 0 0-.666-12.439c-3.642-4.107-5.957-11.773-5.957-11.773a355.766 355.766 0 0 0-183.677-100.459 10.004 10.004 0 0 0-11.105 5.643l-50.164 109.772c-21.328 46.674-17.329 101.011 10.604 144.059z" style="" fill="#52deff" data-original="#52deff" class=""></path><path d="m414.26 226.88-69.98 98.33c-28.24 39.68-73.86 63.05-122.24 63.05-2.6 0-5.21-.06-7.82-.2a58.65 58.65 0 0 1-36.54-15.29 58.547 58.547 0 0 0 16.54 3.29c2.61.14 5.22.2 7.82.2 48.38 0 94-23.37 122.24-63.05l78.13-110.81c3.81 3.92 7.54 7.93 11.18 12.04 3.09 3.49 3.37 8.65.67 12.44z" style="" fill="#43caff" data-original="#43caff" class=""></path><path d="m178.28 266.829 9.919 42.448c6.356 27.2 34.369 43.374 61.103 35.278l41.721-12.634c2.087-.632 1.799-3.67-.37-3.895a154.144 154.144 0 0 1-108.816-62.825c-1.278-1.765-4.053-.495-3.557 1.628z" style="" fill="#f5f8f9" data-original="#f5f8f9" class=""></path><path d="M210.862 199.478a12.449 12.449 0 0 0 7.551 1.601 22.382 22.382 0 0 1 22.844 13.189c2.809 6.309 10.201 9.146 16.511 6.338 6.309-2.809 9.147-10.201 6.338-16.511a47.332 47.332 0 0 0-48.307-27.89c-6.869.722-11.852 6.875-11.13 13.744a12.49 12.49 0 0 0 6.193 9.529zM297.503 249.5a12.449 12.449 0 0 0 7.551 1.601 22.381 22.381 0 0 1 22.844 13.189c2.809 6.309 10.201 9.146 16.511 6.338 6.309-2.809 9.147-10.201 6.338-16.511a47.334 47.334 0 0 0-48.307-27.89c-6.869.722-11.852 6.875-11.13 13.744a12.49 12.49 0 0 0 6.193 9.529z" style="" fill="#43caff" data-original="#43caff" class=""></path><path d="M90.085 95.5H17.5c-5.523 0-10 4.477-10 10v399M504.5 504.5v-399c0-5.523-4.477-10-10-10H336.787M315.234 474.5H444.5v30M67.5 504.5v-30h212.734" style="stroke-width:15;stroke-linecap:round;stroke-linejoin:round;stroke-miterlimit:10;" fill="none" stroke="#000000" stroke-width="15" stroke-linecap="round" stroke-linejoin="round" stroke-miterlimit="10" data-original="#000000" class=""></path><path d="M67.5 96.5v324.138h377V96.5M66.5 160.638h-24a5 5 0 0 1-5-5v-20a5 5 0 0 1 5-5h24M66.5 225.638h-24a5 5 0 0 1-5-5v-20a5 5 0 0 1 5-5h24M66.5 290.638h-24a5 5 0 0 1-5-5v-20a5 5 0 0 1 5-5h24M66.5 355.638h-24a5 5 0 0 1-5-5v-20a5 5 0 0 1 5-5h24M445.5 390.638h24a5 5 0 0 1 5 5v20a5 5 0 0 1-5 5h-25M67.5 420.638h-25a5 5 0 0 1-5-5v-20a5 5 0 0 1 5-5h24M67.5 504.5h-25a5 5 0 0 1-5-5v-20a5 5 0 0 1 5-5h25M445.5 130.638h24a5 5 0 0 1 5 5v20a5 5 0 0 1-5 5h-24M445.5 195.638h24a5 5 0 0 1 5 5v20a5 5 0 0 1-5 5h-24M445.5 260.638h24a5 5 0 0 1 5 5v20a5 5 0 0 1-5 5h-24M445.5 325.638h24a5 5 0 0 1 5 5v20a5 5 0 0 1-5 5h-24M444.5 474.5h25a5 5 0 0 1 5 5v20a5 5 0 0 1-5 5h-25" style="stroke-width:15;stroke-linecap:round;stroke-linejoin:round;stroke-miterlimit:10;" fill="none" stroke="#000000" stroke-width="15" stroke-linecap="round" stroke-linejoin="round" stroke-miterlimit="10" data-original="#000000" class=""></path><path d="M160.095 42.754a355.766 355.766 0 0 1 144.957-35.25h0a10.004 10.004 0 0 1 9.956 7.486l30.34 116.815a150.068 150.068 0 0 1 4.349 25.824M153.889 225.245a150.06 150.06 0 0 1-11.243-19.662L90.8 96.595a10.004 10.004 0 0 1 2.815-12.134h0a355.803 355.803 0 0 1 36.044-25.14" style="stroke-width:15;stroke-linecap:round;stroke-linejoin:round;stroke-miterlimit:10;" fill="none" stroke="#000000" stroke-width="15" stroke-linecap="round" stroke-linejoin="round" stroke-miterlimit="10" data-original="#000000" class=""></path><path d="M240.499 106.742a12.448 12.448 0 0 1 2.131-6.515 47.332 47.332 0 0 1 52.416-19.078c6.64 1.904 10.478 8.829 8.574 15.468a12.492 12.492 0 0 1-7.753 8.309 12.45 12.45 0 0 1-7.715.265 22.38 22.38 0 0 0-24.465 8.556M192.814 139.07a22.377 22.377 0 0 0-23.461 9.36c-3.862 5.725-11.634 7.236-17.361 3.374-5.726-3.862-7.237-11.634-3.374-17.361a47.333 47.333 0 0 1 52.416-19.078c.761.218 1.486.503 2.169.845" style="stroke-width:15;stroke-linecap:round;stroke-linejoin:round;stroke-miterlimit:10;" fill="none" stroke="#000000" stroke-width="15" stroke-linecap="round" stroke-linejoin="round" stroke-miterlimit="10" data-original="#000000" class=""></path><path d="m383.909 269.527 30.351-42.644a10.006 10.006 0 0 0-.665-12.439h0a355.768 355.768 0 0 0-194.861-112.503h0a10.004 10.004 0 0 0-11.105 5.643l-50.164 109.772c-21.329 46.674-17.33 101.01 10.603 144.059h0a58.65 58.65 0 0 0 46.15 26.645h0c51.247 2.666 100.304-21.038 130.06-62.847l19.41-27.272" style="stroke-width:15;stroke-linecap:round;stroke-linejoin:round;stroke-miterlimit:10;" fill="none" stroke="#000000" stroke-width="15" stroke-linecap="round" stroke-linejoin="round" stroke-miterlimit="10" data-original="#000000" class=""></path><path d="M209.502 339.183c11.414 7.19 25.783 9.617 39.8 5.372l52.136-15.788h0a154.136 154.136 0 0 1-125.634-72.535h0l12.395 53.045c.167.716.349 1.424.546 2.124M210.862 199.478a12.449 12.449 0 0 0 7.551 1.601 22.382 22.382 0 0 1 22.844 13.189c2.809 6.309 10.201 9.146 16.511 6.338 6.309-2.809 9.147-10.201 6.338-16.511a47.332 47.332 0 0 0-48.307-27.89c-6.869.722-11.852 6.875-11.13 13.744a12.49 12.49 0 0 0 6.193 9.529zM297.503 249.5a12.449 12.449 0 0 0 7.551 1.601 22.381 22.381 0 0 1 22.844 13.189c2.809 6.309 10.201 9.146 16.511 6.338 6.309-2.809 9.147-10.201 6.338-16.511a47.334 47.334 0 0 0-48.307-27.89c-6.869.722-11.852 6.875-11.13 13.744a12.49 12.49 0 0 0 6.193 9.529zM235.443 268.006a28.706 28.706 0 0 0 25.98 14.999" style="stroke-width:15;stroke-linecap:round;stroke-linejoin:round;stroke-miterlimit:10;" fill="none" stroke="#000000" stroke-width="15" stroke-linecap="round" stroke-linejoin="round" stroke-miterlimit="10" data-original="#000000" class=""></path></g></svg>