<svg xmlns="http://www.w3.org/2000/svg" version="1.1" xmlns:xlink="http://www.w3.org/1999/xlink" width="512" height="512" x="0" y="0" viewBox="0 0 512 512" style="enable-background:new 0 0 512 512" xml:space="preserve"><g><path fill="#fddc8d" d="M493.1 70.4v84H20.8v-84c0-11.7 9.5-21.1 21.1-21.1H472c11.7 0 21.1 9.5 21.1 21.1z" opacity="1" data-original="#fddc8d"></path><path fill="#fff" d="M67.8 49.3c-11.7 0-21.1 9.4-21.1 21.1v84H20.8v-84c0-11.7 9.4-21.1 21.1-21.1z" opacity=".5"></path><path d="M493.1 70.4v84h-21.8v-84c0-11.7-9.5-21.1-21.1-21.1H472c11.7 0 21.1 9.5 21.1 21.1z" opacity=".15"></path><path fill="#efefef" d="M493.1 154.5v331.8c0 11.7-9.5 21.1-21.1 21.1H41.9c-11.7 0-21.1-9.5-21.1-21.1V154.5z"></path><path d="M493.1 154.5v331.8c0 11.6-9.4 21.1-21.1 21.1h-33c11.7 0 21.1-9.5 21.1-21.1V154.5z" opacity=".15"></path><path fill="#a7b1b3" d="M388.1 258.8V403c0 10.4-8.4 18.8-18.8 18.8H144.6c-10.4 0-18.8-8.4-18.8-18.8V258.8c0-10.4 8.4-18.8 18.8-18.8h224.7c10.4 0 18.8 8.4 18.8 18.8z"></path><path fill="#fff" d="M163.6 421.8h-18.9c-10.4 0-18.8-8.4-18.8-18.8V258.8c0-10.4 8.4-18.8 18.8-18.8h18.9c-10.4 0-18.8 8.4-18.8 18.8V403c-.1 10.4 8.4 18.8 18.8 18.8z" opacity=".5"></path><path d="M388.1 258.8V403c0 10.4-8.4 18.8-18.8 18.8h-19c10.4 0 18.8-8.4 18.8-18.8V258.8c0-10.4-8.4-18.8-18.8-18.8h19c10.4 0 18.8 8.4 18.8 18.8z" opacity=".15"></path><path fill="#a5e0fa" d="M192.8 378.8V283c0-5.2 4.2-9.4 9.4-9.4h109.5c5.2 0 9.4 4.2 9.4 9.4v95.8c0 5.2-4.2 9.4-9.4 9.4H202.2c-5.2 0-9.4-4.2-9.4-9.4z"></path><path fill="#fff" d="M217.7 388.3h-15.5c-5.2 0-9.4-4.2-9.4-9.4V283c0-5.2 4.2-9.4 9.4-9.4h15.5c-5.2 0-9.4 4.2-9.4 9.4v95.8c0 5.2 4.2 9.5 9.4 9.5z" opacity=".5"></path><path d="M321.1 283v95.8c0 5.2-4.2 9.4-9.4 9.4h-15.1c5.2 0 9.4-4.2 9.4-9.4V283c0-5.2-4.2-9.4-9.4-9.4h15.1c5.2 0 9.4 4.2 9.4 9.4z" opacity=".15"></path><path fill="#efefef" d="m269.8 335.5-26.2 15.7c-3.6 2.1-8.1-.4-8.1-4.6v-31.3c0-4.2 4.5-6.8 8.1-4.6l26.2 15.7c3.5 2 3.5 7 0 9.1z"></path><path fill="#a7b1b3" d="M88.4 92.6c-10.5 0-19-8.5-19-19V25c0-10.5 8.5-19 19-19s19 8.5 19 19v48.6c-.1 10.5-8.6 19-19 19zM172.7 92.6c-10.5 0-19-8.5-19-19V25c0-10.5 8.5-19 19-19s19 8.5 19 19v48.6c-.1 10.5-8.6 19-19 19zM257 92.6c-10.5 0-19-8.5-19-19V25c0-10.5 8.5-19 19-19s19 8.5 19 19v48.6c-.1 10.5-8.6 19-19 19zM341.2 92.6c-10.5 0-19-8.5-19-19V25c0-10.5 8.5-19 19-19s19 8.5 19 19v48.6c0 10.5-8.5 19-19 19zM425.5 92.6c-10.5 0-19-8.5-19-19V25c0-10.5 8.5-19 19-19s19 8.5 19 19v48.6c0 10.5-8.5 19-19 19z"></path><g fill="#fff"><path d="M93.5 91.9c-1.7.4-3.4.7-5.2.7-10.5 0-18.9-8.5-18.9-18.9V25c0-10.5 8.5-19 18.9-19 1.8 0 3.5.3 5.2.7C85.6 9 79.7 16.3 79.7 25v48.6c0 8.7 5.9 16 13.8 18.3zM177.9 91.9c-1.7.4-3.4.7-5.2.7-10.5 0-19-8.5-19-18.9V25c0-10.5 8.5-19 19-19 1.8 0 3.5.3 5.2.7C169.9 9 164 16.3 164 25v48.6c0 8.7 5.9 16 13.9 18.3zM262.1 91.9c-1.7.4-3.4.7-5.2.7-10.5 0-19-8.5-19-18.9V25c0-10.5 8.5-19 19-19 1.8 0 3.5.3 5.2.7-8 2.2-13.9 9.6-13.9 18.3v48.6c.1 8.7 5.9 16 13.9 18.3zM346.4 91.9c-1.7.4-3.4.7-5.2.7-10.5 0-18.9-8.5-18.9-18.9V25c0-10.5 8.5-19 18.9-19 1.8 0 3.5.3 5.2.7-7.9 2.2-13.8 9.6-13.8 18.3v48.6c0 8.7 5.9 16 13.8 18.3zM430.7 91.9c-1.7.4-3.4.7-5.2.7-10.5 0-19-8.5-19-18.9V25c0-10.5 8.5-19 19-19 1.8 0 3.5.3 5.2.7-8 2.2-13.9 9.6-13.9 18.3v48.6c.1 8.7 5.9 16 13.9 18.3z" opacity=".5"></path></g><path d="M107.3 25v48.6c0 10.4-8.5 18.9-18.9 18.9-2 0-3.9-.3-5.6-.8C90.5 89.3 96 82.1 96 73.6V25c0-8.5-5.6-15.7-13.3-18.1 1.7-.5 3.6-.8 5.6-.8 10.5 0 19 8.5 19 18.9zM191.6 25v48.6c0 10.4-8.5 18.9-18.9 18.9-2 0-3.9-.3-5.6-.8 7.7-2.4 13.3-9.6 13.3-18.1V25c0-8.5-5.6-15.7-13.3-18.1 1.8-.5 3.7-.8 5.6-.8 10.4 0 18.9 8.5 18.9 18.9zM275.9 25v48.6c0 10.4-8.5 18.9-18.9 18.9-2 0-3.9-.3-5.6-.8 7.7-2.4 13.3-9.6 13.3-18.1V25c0-8.5-5.6-15.7-13.3-18.1 1.8-.5 3.7-.8 5.6-.8 10.4 0 18.9 8.5 18.9 18.9zM360.2 25v48.6c0 10.4-8.5 18.9-19 18.9-2 0-3.9-.3-5.6-.8 7.7-2.4 13.3-9.6 13.3-18.1V25c0-8.5-5.6-15.7-13.3-18.1 1.8-.5 3.7-.8 5.6-.8 10.5 0 19 8.5 19 18.9zM444.5 25v48.6c0 10.4-8.5 18.9-19 18.9-2 0-3.9-.3-5.6-.8 7.7-2.4 13.4-9.6 13.4-18.1V25c0-8.5-5.6-15.7-13.4-18.1 1.8-.5 3.7-.8 5.6-.8 10.5 0 19 8.5 19 18.9z" opacity=".15"></path><path d="M498.5 70.4c0-14.6-11.9-26.5-26.5-26.5h-22.2V25c0-13.4-10.9-24.3-24.3-24.3S401.2 11.6 401.2 25v19h-35.7V25c0-13.4-10.9-24.3-24.3-24.3S316.9 11.6 316.9 25v19h-35.7V25c0-13.4-10.9-24.3-24.3-24.3S232.6 11.6 232.6 25v19H197V25C197 11.6 186.1.7 172.7.7S148.4 11.6 148.4 25v19h-35.7V25C112.7 11.6 101.8.7 88.4.7S64.1 11.6 64.1 25v19H41.9c-14.6 0-26.5 11.9-26.5 26.5v415.8c0 14.6 11.9 26.4 26.4 26.4H472c14.6 0 26.4-11.9 26.4-26.4.1-35.9.1-371.7.1-415.9zM411.9 25c0-7.5 6.1-13.6 13.6-13.6s13.6 6.1 13.6 13.6v48.6c0 7.5-6.1 13.6-13.6 13.6s-13.6-6.1-13.6-13.6zm-70.7-13.6c7.5 0 13.6 6.1 13.6 13.6v48.6c0 7.5-6.1 13.6-13.6 13.6s-13.6-6.1-13.6-13.6V25c0-7.5 6.1-13.6 13.6-13.6zM243.3 25c0-7.5 6.1-13.6 13.6-13.6s13.6 6.1 13.6 13.6v48.6c0 7.5-6.1 13.6-13.6 13.6s-13.6-6.1-13.6-13.6zM159 25c0-7.5 6.1-13.6 13.6-13.6s13.6 6.1 13.6 13.6v48.6c0 7.5-6.1 13.6-13.6 13.6S159 81.1 159 73.6zM88.4 11.4c7.5 0 13.6 6.1 13.6 13.6v48.6c0 7.5-6.1 13.6-13.6 13.6s-13.6-6.1-13.6-13.6V25c-.1-7.5 6.1-13.6 13.6-13.6zM41.9 54.6h22.2v19C64.1 87 75 97.9 88.4 97.9s24.3-10.9 24.3-24.3v-19h35.7v19c0 13.4 10.9 24.3 24.3 24.3S197 87 197 73.6v-19h35.7v19c0 13.4 10.9 24.3 24.3 24.3s24.3-10.9 24.3-24.3v-19H317v19c0 13.4 10.9 24.3 24.3 24.3s24.3-10.9 24.3-24.3v-19h35.7v19c0 13.4 10.9 24.3 24.3 24.3s24.3-10.9 24.3-24.3v-19H472c8.7 0 15.8 7.1 15.8 15.8v78.7H26.1V70.4c0-8.7 7.1-15.8 15.8-15.8zM472 502.1H41.9c-8.7 0-15.8-7.1-15.8-15.8V159.8h461.7v326.5c0 8.7-7.1 15.8-15.8 15.8z"></path><path d="M369.3 234.7H144.6c-13.3 0-24.1 10.8-24.1 24.1V403c0 13.3 10.8 24.1 24.1 24.1h224.7c13.3 0 24.1-10.8 24.1-24.1V258.8c0-13.3-10.8-24.1-24.1-24.1zM382.8 403c0 7.4-6 13.5-13.5 13.5H144.6c-7.4 0-13.5-6-13.5-13.5V258.8c0-7.4 6-13.5 13.5-13.5h224.7c7.4 0 13.5 6 13.5 13.5z"></path><path d="M311.7 268.3H202.2c-8.1 0-14.7 6.6-14.7 14.7v95.8c0 8.1 6.6 14.7 14.7 14.7h109.5c8.1 0 14.7-6.6 14.7-14.7V283c0-8.1-6.6-14.7-14.7-14.7zm4.1 110.5c0 2.2-1.8 4.1-4.1 4.1H202.2c-2.2 0-4.1-1.8-4.1-4.1V283c0-2.2 1.8-4.1 4.1-4.1h109.5c2.2 0 4.1 1.8 4.1 4.1zM358.9 268.3h-7.2c-2.9 0-5.3 2.4-5.3 5.3s2.4 5.3 5.3 5.3h7.2c2.9 0 5.3-2.4 5.3-5.3s-2.3-5.3-5.3-5.3zM358.9 306.5h-7.2c-2.9 0-5.3 2.4-5.3 5.3s2.4 5.3 5.3 5.3h7.2c2.9 0 5.3-2.4 5.3-5.3s-2.3-5.3-5.3-5.3zM358.9 344.7h-7.2c-2.9 0-5.3 2.4-5.3 5.3s2.4 5.3 5.3 5.3h7.2c2.9 0 5.3-2.4 5.3-5.3s-2.3-5.3-5.3-5.3zM358.9 382.9h-7.2c-2.9 0-5.3 2.4-5.3 5.3s2.4 5.3 5.3 5.3h7.2c2.9 0 5.3-2.4 5.3-5.3s-2.3-5.3-5.3-5.3zM162.2 268.3H155c-2.9 0-5.3 2.4-5.3 5.3s2.4 5.3 5.3 5.3h7.2c2.9 0 5.3-2.4 5.3-5.3.1-2.9-2.3-5.3-5.3-5.3zM162.2 306.5H155c-2.9 0-5.3 2.4-5.3 5.3s2.4 5.3 5.3 5.3h7.2c2.9 0 5.3-2.4 5.3-5.3s-2.3-5.3-5.3-5.3zM162.2 344.7H155c-2.9 0-5.3 2.4-5.3 5.3s2.4 5.3 5.3 5.3h7.2c2.9 0 5.3-2.4 5.3-5.3.1-2.9-2.3-5.3-5.3-5.3zM162.2 382.9H155c-2.9 0-5.3 2.4-5.3 5.3s2.4 5.3 5.3 5.3h7.2c2.9 0 5.3-2.4 5.3-5.3.1-2.9-2.3-5.3-5.3-5.3z"></path><path d="M275.5 321.7 249.3 306c-3.4-2-7.4-2.1-10.8-.1-3.4 1.9-5.4 5.4-5.4 9.3v31.4c0 3.9 2 7.4 5.4 9.3 3.5 2 7.5 1.8 10.8-.1l26.2-15.7c3.3-2 5.2-5.4 5.2-9.2s-1.9-7.2-5.2-9.2zm-5.4 9.2-26.2 15.7.1-31.4z"></path></g></svg>