<svg xmlns="http://www.w3.org/2000/svg" version="1.1" xmlns:xlink="http://www.w3.org/1999/xlink" width="512" height="512" x="0" y="0" viewBox="0 0 512 512" style="enable-background:new 0 0 512 512" xml:space="preserve" class=""><g><path d="M39.385 512c-8.7 0-15.754-7.054-15.754-15.754V232.369C23.631 104.241 127.872 0 256 0c62.023 0 120.377 24.164 164.313 68.042a233.883 233.883 0 0 1 23.285 27.231 229.899 229.899 0 0 1 16.933 26.729c10.403 19.277 17.985 39.786 22.549 60.969a228.615 228.615 0 0 1 4.195 26.864c.179 1.637.325 3.451.443 5.299.064.676.118 1.37.141 2.053.338 4.881.51 9.987.51 15.182v263.877c0 8.7-7.054 15.754-15.754 15.754H39.385z" style="" fill="#ffffff" data-original="#ffffff" class=""></path><path d="M471.355 232.369v263.877H38.125V232.369c0-119.624 96.991-216.615 216.615-216.615 59.812 0 113.953 24.261 153.18 63.435a217.178 217.178 0 0 1 21.688 25.364 213.75 213.75 0 0 1 15.806 24.944c9.505 17.618 16.673 36.68 21.005 56.793a211.69 211.69 0 0 1 3.912 25.049c.184 1.68.315 3.361.42 5.067.052.499.105 1.024.105 1.523.342 4.778.499 9.583.499 14.44z" style="" fill="#7182ff" data-original="#7182ff" class=""></path><path d="m283.598 50.736-19.226 7.004-12.81-.116-3.029 5.879-20.151 7.341h-.021l-11.645-.521-4.152 6.306h-.021l-17.29 6.289-12.433-.253-3.406 6.017-19.731 7.193-12.452-.241-3.365 6.005-49.874 18.174-6.815-21.203 27.219-10.16 12.339-1.021 3.332-4.847 19.499-7.278 12.227-.971 3.422-4.877 17.102-6.394 11.208-.591 4.441-5.257 19.92-7.446h.021l13.514-1.452 2.136-4.396 19.015-7.088 11.198-.587 4.451-5.261 13.568-5.069 4.375 13.104z" style="" fill="#512651" data-original="#512651" class=""></path><path d="m159.683 95.875-15.817 5.764-29.47-13.189 15.671-5.868zM195.253 82.918l-15.839 5.764-29.848-13.378 15.649-5.848zM228.361 70.844l-15.797 5.785h-.021l-30.226-13.567 15.649-5.848zM264.372 57.74l-15.839 5.763-30.626-13.735 15.65-5.848zM289.361 48.632l-5.763 2.104-31.026-13.904 15.649-5.848 17.943 8.035z" style="" fill="#ffffff" data-original="#ffffff" class=""></path><path d="M315.865 220.526 106.108 247.03 93.992 119.813l41.943-7.173 2.396 4.286 10.688-6.516 21.813-3.744 3.74 4.057 9.343-6.286h.021l18.679-3.198 3.496 4.099 9.587-6.328 19.142-3.282h.021l2.59 4.243 10.493-6.493h.021l16.975-2.903 2.338 4.296 10.746-6.526h.021l18.489-3.176 3.176 14.935v.02z" style="" fill="#512651" data-original="#512651" class=""></path><path d="M96.263 138.134a.525.525 0 0 1-.079-1.045l204.457-31.426c.301-.063.557.15.599.439a.523.523 0 0 1-.439.599L96.344 138.127a.578.578 0 0 1-.081.007z" style="" fill="#ffffff" data-original="#ffffff" class=""></path><path d="m149.019 110.41-12.095 20.951-12.957 1.998 11.968-20.719zM183.915 104.437l-12.473 21.623-12.958 1.977 12.348-21.371zM215.698 99.01l-12.831 22.212-12.957 1.998 12.705-21.981zM247.944 93.478l-13.188 22.843-12.958 1.998 13.042-22.591h.021zM278.024 88.345l-13.504 23.412h-.021l-12.937 1.977 13.378-23.159zM299.71 100.104v.02l-3.933 6.816-12.957 1.998 13.714-23.769 1.157-.189z" style="" fill="#ffffff" data-original="#ffffff" class=""></path><path d="m87.177 98.61 4.922 21.203 3.408 18.174 41.081-25.179zM110.903 164.018a.788.788 0 0 1-.125-1.567l180.728-29.281a.798.798 0 0 1 .905.653.79.79 0 0 1-.653.905l-180.728 29.28a.768.768 0 0 1-.127.01zM114.437 190.268a.788.788 0 0 1-.125-1.567L295.04 159.42a.787.787 0 0 1 .905.653.79.79 0 0 1-.653.905l-180.728 29.281a.775.775 0 0 1-.127.009zM116.456 216.518a.788.788 0 0 1-.125-1.567l180.73-29.278a.795.795 0 0 1 .905.653.79.79 0 0 1-.653.905l-180.73 29.278a.775.775 0 0 1-.127.009z" style="" fill="#ffffff" data-original="#ffffff" class=""></path><path d="M163.911 181.686a.788.788 0 0 1-.782-.699l-3.029-26.253a.789.789 0 1 1 1.568-.179l3.029 26.253a.789.789 0 0 1-.786.878zM232.567 171.59a.788.788 0 0 1-.782-.699l-3.029-26.253a.789.789 0 0 1 .693-.873c.429-.032.825.26.875.694l3.029 26.253a.789.789 0 0 1-.786.878zM46.715 339.979s-9.394-14.725 2.608-22.559c12.002-7.834 28.038-2.128 28.038-2.128S59.003 291.235 77 279.753c17.997-11.482 31.029 9.777 31.029 9.777s-11.124-35.757 17.506-40.564c28.631-4.807 28.97 31.809 28.97 31.809s5.244-19.814 22.444-18.391 18.391 22.444 18.391 22.444-.289-12.388 17.546-15.798 23.913 15.556 23.913 15.556L46.715 339.979z" style="" fill="#ffffff" data-original="#ffffff" class=""></path><path d="m227.189 458.825-5.376 1.118-14.907 3.588-12.301-3.087-8.525 7.962-2.407.699-9.137 2.209-16.902-1.436-6.571 7.064-12.653 3.036-12.665-11.572L52.907 338.59l2.688-5.849 21.359-6.15 30.436 6.15 11.922-18.338 24.909-7.155L171 319.829l15.67-24.797 23.133-6.623 17.503.531 11.225 10.606z" style="" fill="#ffcbbe" data-original="#ffcbbe" class=""></path><path d="m174.536 471.314-23.473 5.628-65.172-132.226-8.937-18.125 42.358-12.188 6.507 18.495zM138.41 479.978l-11.12 2.677-74.857-128.054-10.496-17.948 13.658-3.912 10.107 17.94zM206.905 463.531l-17.929-149.34-2.306-19.159-42.449 12.216 4.616 18.816v.03l37.243 142.312zM243.062 454.837l-15.873 3.988-14.897-151.403-2.489-19.013 28.159-8.106.569 19.243z" style="" fill="#f7607d" data-original="#f7607d" class=""></path><path d="M52.343 355.376a.747.747 0 0 1-.214-1.463l186.77-55.684a.747.747 0 1 1 .427 1.431l-186.77 55.684a.72.72 0 0 1-.213.032zM471.355 397.758v10.608l-4.227-4.884zM354.579 471.999l-6.072-5.965 44.268-45.049 19.445 61.687-8.116 2.558-15.188-48.176z" style="" fill="#512651" data-original="#512651" class=""></path><path d="m442.373 376.645-48.133 65.671-4.017-1.103-4.227-1.182-9.4-2.599-88.011-24.313 14.494-52.434 8.717-31.587 12.131-43.927 15.281 4.227h.026l33.004 9.137h.053l57.292 15.806v.026c-.002.001 12.974 61.857 12.79 62.278z" style="" fill="#512651" data-original="#512651" class=""></path><circle cx="371.89" cy="235.551" r="62.975" style="" transform="rotate(-29.761 371.855 235.535)" fill="#512651" data-original="#512651" class=""></circle><path d="M387.072 179.331c-31.14-8.612-63.462 9.715-72.074 40.855-8.586 31.14 9.741 63.462 40.881 72.074a59.1 59.1 0 0 0 15.57 2.1c12.839 0 25.18-4.254 35.184-11.763 10.03-7.51 17.723-18.248 21.294-31.219 8.612-31.139-9.715-63.461-40.855-72.047zm39.49 71.68c-8.376 30.379-39.936 48.259-70.315 39.883-30.379-8.402-48.259-39.936-39.884-70.314 7.011-25.311 30.064-41.958 55.112-41.958 5.041 0 10.135.656 15.202 2.074 25.311 6.984 41.958 30.037 41.958 55.112a57.434 57.434 0 0 1-2.073 15.203z" style="" fill="#bd6eeb" data-original="#bd6eeb" class=""></path><path d="M471.355 232.369v95.599a61.563 61.563 0 0 1-9.4-4.673h-.026c-23.499-14.257-35.709-42.824-28.016-70.604 5.33-19.404 19.193-34.133 36.418-41.354.184 1.68.315 3.361.42 5.067.052.499.105 1.024.105 1.523.342 4.78.499 9.585.499 14.442z" style="" fill="#512651" data-original="#512651" class=""></path><path d="M445.545 297.826c-7.536-13.286-9.452-28.698-5.383-43.428 4.07-14.704 13.627-26.965 26.913-34.501a51.529 51.529 0 0 1 3.781-1.969c0-.499-.052-1.024-.105-1.523a57.647 57.647 0 0 0-4.385 2.258c-13.601 7.719-23.395 20.296-27.569 35.367-4.175 15.098-2.206 30.878 5.514 44.505 6.249 11.028 15.675 19.535 27.044 24.576v-1.549c-10.844-4.962-19.823-13.154-25.81-23.736z" style="" fill="#bd6eeb" data-original="#bd6eeb" class=""></path><path d="m321.399 337.792-76.266-69.096-30.816 111.56 103.794-22.889z" style="" fill="#512651" data-original="#512651" class=""></path><path d="M471.355 362.312v79.531l-5.593 20.244-65.772-18.17-5.75-1.602 2.442-8.874v-.026l32.899-119.047v-.026l32.348 8.953h.026l9.4 2.6v25.757z" style="" fill="#bd6eeb" data-original="#bd6eeb" class=""></path><path d="M471.802 360.973c-.131.473-.263.919-.446 1.339-2.704 7.168-10.476 11.185-17.986 9.111-7.982-2.206-12.655-10.45-10.45-18.432 2.206-7.956 10.45-12.656 18.432-10.45a14.889 14.889 0 0 1 10.004 9.111 14.836 14.836 0 0 1 .446 9.321z" style="" fill="#ffcbbe" data-original="#ffcbbe" class=""></path><path d="M335.702 313.824h78.294v6.127h-78.294z" style="" transform="rotate(15.442 374.786 316.844)" fill="#ffcbbe" data-original="#ffcbbe" class=""></path><circle cx="377.137" cy="102.211" r="18.467" style="" transform="rotate(-45.001 377.137 102.216)" fill="#ffffff" data-original="#ffffff" class=""></circle><circle cx="356.859" cy="122.488" r="18.467" style="" fill="#ffffff" data-original="#ffffff" class=""></circle><circle cx="389.086" cy="125.747" r="18.467" style="" fill="#ffffff" data-original="#ffffff" class=""></circle><path d="M282.935 418.544c5.926 8.3 4.001 19.833-4.299 25.759-8.301 5.926-19.833 4.001-25.759-4.299-5.926-8.3-4.002-19.833 4.299-25.759 8.3-5.926 19.833-4.002 25.759 4.299z" style="" fill="#ffffff" data-original="#ffffff" class=""></path><path d="M278.215 446.829c5.926 8.3 4.002 19.833-4.299 25.759-8.3 5.926-19.833 4.001-25.759-4.299-5.926-8.301-4.001-19.833 4.299-25.759 8.299-5.926 19.832-4.002 25.759 4.299z" style="" fill="#ffffff" data-original="#ffffff" class=""></path><circle cx="291.306" cy="441.486" r="18.467" style="" transform="rotate(-18.88 291.354 441.524)" fill="#ffffff" data-original="#ffffff" class=""></circle><path d="M113.417 445.1c-5.883 8.331-17.405 10.316-25.737 4.433s-10.316-17.406-4.433-25.737c5.883-8.331 17.406-10.316 25.737-4.433 8.332 5.883 10.316 17.406 4.433 25.737z" style="" fill="#ffffff" data-original="#ffffff" class=""></path><path d="M85.157 449.967c-5.883 8.331-17.406 10.316-25.737 4.433-8.331-5.883-10.316-17.405-4.433-25.737 5.883-8.331 17.406-10.316 25.737-4.433 8.332 5.884 10.316 17.406 4.433 25.737z" style="" fill="#ffffff" data-original="#ffffff" class=""></path><circle cx="94.517" cy="460.566" r="18.467" style="" transform="rotate(-29.498 94.53 460.583)" fill="#ffffff" data-original="#ffffff" class=""></circle><path d="M445.22 424.971c-2.811 8.946-12.343 13.92-21.289 11.108-8.946-2.811-13.92-12.342-11.109-21.289 2.811-8.946 12.343-13.92 21.289-11.109 8.946 2.813 13.92 12.344 11.109 21.29z" style="" fill="#ffffff" data-original="#ffffff" class=""></path><path d="M421.844 437.169c-2.811 8.946-12.343 13.92-21.289 11.108-8.946-2.811-13.92-12.343-11.108-21.289s12.343-13.92 21.289-11.108c8.945 2.811 13.919 12.343 11.108 21.289z" style="" fill="#ffffff" data-original="#ffffff" class=""></path><path d="M449.213 448.91c-2.811 8.946-12.342 13.92-21.289 11.109-8.946-2.811-13.92-12.343-11.109-21.289 2.811-8.946 12.343-13.92 21.289-11.108s13.921 12.342 11.109 21.288zM299.244 253.214c-7.121 7.302-18.812 7.448-26.114.328-7.302-7.121-7.448-18.812-.328-26.114 7.121-7.302 18.812-7.448 26.114-.328 7.302 7.121 7.449 18.812.328 26.114z" style="" fill="#ffffff" data-original="#ffffff" class=""></path><path d="M270.57 253.574c-7.12 7.302-18.812 7.448-26.114.328s-7.449-18.812-.328-26.114c7.12-7.302 18.812-7.448 26.114-.328 7.302 7.121 7.449 18.812.328 26.114z" style="" fill="#ffffff" data-original="#ffffff" class=""></path><path d="M291.367 278.406c-7.121 7.302-18.812 7.448-26.114.328s-7.448-18.812-.328-26.114c7.121-7.302 18.812-7.448 26.114-.328 7.301 7.121 7.448 18.813.328 26.114z" style="" fill="#ffffff" data-original="#ffffff" class=""></path></g></svg>