<svg xmlns="http://www.w3.org/2000/svg" version="1.1" xmlns:xlink="http://www.w3.org/1999/xlink" width="512" height="512" x="0" y="0" viewBox="0 0 512 512" style="enable-background:new 0 0 512 512" xml:space="preserve" class="hovered-paths"><g><path fill="#fead8a" d="M466 371.247c22.214-36.871 35-80.064 35-126.247s-12.786-89.376-35-126.247zM406.908 52C365.314 19.425 312.929 0 256 0c-56.928 0-109.312 19.426-150.905 52z" opacity="1" data-original="#fead8a" class=""></path><g fill="#fead8a"><path d="M46 118.753C23.786 155.624 11 198.817 11 245s12.786 89.376 35 126.247zM98.156 432.362C140.792 468.318 195.86 490 256 490s115.208-21.682 157.844-57.638z" fill="#fead8a" opacity="1" data-original="#fead8a" class=""></path></g><path fill="#d4f2f6" d="M458.743 116.585H53.908l-8.908 1v251.97a246.18 246.18 0 0 0 54.339 63.806H447c11.046 0 20-8.954 20-20V117.585z" opacity="1" data-original="#d4f2f6" class=""></path><path fill="#a6e7f0" d="M98 117.585H45v251.97a246.177 246.177 0 0 0 53 62.667z" opacity="1" data-original="#a6e7f0" class=""></path><g fill="#fff"><path d="M382.531 168.5H418.5a3 3 0 0 0 3-3v-9a3 3 0 0 0-3-3h-51.474a54.44 54.44 0 0 1 15.505 15zM189 168.5h67a3 3 0 0 0 3-3v-9a3 3 0 0 0-3-3h-67a3 3 0 0 0-3 3v9a3 3 0 0 0 3 3zM274 156.5v9a3 3 0 0 0 3 3h16.469a54.44 54.44 0 0 1 15.505-15H277a3 3 0 0 0-3 3zM168 153.5H93.5a3 3 0 0 0-3 3v9a3 3 0 0 0 3 3H168a3 3 0 0 0 3-3v-9a3 3 0 0 0-3-3z" fill="#ffffff" opacity="1" data-original="#ffffff" class=""></path></g><g fill="#fff"><path d="M392 199c0 1.82-.093 3.619-.27 5.394h26.77a3 3 0 0 0 3-3v-9a3 3 0 0 0-3-3h-27.373c.563 3.12.873 6.326.873 9.606zM418.5 225.287h-33.354a54.366 54.366 0 0 1-12.393 15H418.5a3 3 0 0 0 3-3v-9a3 3 0 0 0-3-3zM418.5 368.862h-60.378l15 15H418.5a3 3 0 0 0 3-3v-9a3 3 0 0 0-3-3zM375 332.968h-7.477a116.323 116.323 0 0 1-6.003 15H375a3 3 0 0 0 3-3v-9a3 3 0 0 0-3-3zM393 335.968v9a3 3 0 0 0 3 3h22.5a3 3 0 0 0 3-3v-9a3 3 0 0 0-3-3H396a3 3 0 0 0-3 3zM418.5 261.181h-51.017a116.121 116.121 0 0 1 3.772 15H418.5a3 3 0 0 0 3-3v-9a3 3 0 0 0-3-3zM421.5 300.075a3 3 0 0 0-3-3h-45.365l.001.061c0 5.06-.323 10.046-.949 14.939H418.5a3 3 0 0 0 3-3zM141 192.394v9a3 3 0 0 0 3 3h40.536a117.23 117.23 0 0 1 25.516-15H144a3 3 0 0 0-3 3zM123 189.394H93.5a3 3 0 0 0-3 3v9a3 3 0 0 0 3 3H123a3 3 0 0 0 3-3v-9a3 3 0 0 0-3-3zM144.477 332.968H93.5a3 3 0 0 0-3 3v9a3 3 0 0 0 3 3h56.98a116.323 116.323 0 0 1-6.003-15zM128 368.862H93.5a3 3 0 0 0-3 3v9a3 3 0 0 0 3 3H128a3 3 0 0 0 3-3v-9a3 3 0 0 0-3-3zM163.459 368.862H149a3 3 0 0 0-3 3v9a3 3 0 0 0 3 3h28.345a118.25 118.25 0 0 1-13.886-15zM138.864 297.136l.001-.061H93.5a3 3 0 0 0-3 3v9a3 3 0 0 0 3 3h46.313a117.678 117.678 0 0 1-.949-14.939zM163.553 225.287H93.5a3 3 0 0 0-3 3v9a3 3 0 0 0 3 3h60.116a117.628 117.628 0 0 1 9.937-15zM144.517 261.181H93.5a3 3 0 0 0-3 3v9a3 3 0 0 0 3 3h47.245a116.121 116.121 0 0 1 3.772-15z" fill="#ffffff" opacity="1" data-original="#ffffff" class=""></path></g><path fill="#0681af" d="M467 117.585H45V71c0-11.046 8.954-20 20-20h382c11.046 0 20 8.954 20 20z" opacity="1" data-original="#0681af" class="hovered-path"></path><path fill="#017297" d="M118 51H65c-11.046 0-20 8.954-20 20v46.585h53V71c0-11.046 8.954-20 20-20z" opacity="1" data-original="#017297"></path><path fill="#ffffff" d="M409 91.792H216a3 3 0 0 1-3-3v-9a3 3 0 0 1 3-3h193a3 3 0 0 1 3 3v9a3 3 0 0 1-3 3z" opacity="1" data-original="#ffffff" class=""></path><circle cx="81.5" cy="84.293" r="7.5" fill="#fd6930" opacity="1" data-original="#fd6930" class=""></circle><circle cx="107.5" cy="84.293" r="7.5" fill="#ffe177" opacity="1" data-original="#ffe177" class=""></circle><circle cx="133.5" cy="84.293" r="7.5" fill="#00f2a6" opacity="1" data-original="#00f2a6" class=""></circle><circle cx="430.5" cy="84.293" r="7.5" fill="#ffffff" opacity="1" data-original="#ffffff" class=""></circle><path fill="#025f80" d="m384.476 393.801-31.312-31.312a118.118 118.118 0 0 1-31.097 31.319l31.201 31.201z" opacity="1" data-original="#025f80" class=""></path><path fill="#024c67" d="m366.827 410.035-28.342-28.342a118.726 118.726 0 0 1-15.666 12.868l29.74 29.74z" opacity="1" data-original="#024c67" class=""></path><path fill="#3692bc" d="m466.953 487.148-20.339 20.339c-6.018 6.018-15.774 6.018-21.792 0l-74.188-74.188a5 5 0 0 1 0-7.071l35.059-35.059a5 5 0 0 1 7.071 0l74.188 74.188c6.019 6.017 6.019 15.773.001 21.791z" opacity="1" data-original="#3692bc" class=""></path><path fill="#0681af" d="M384.464 433.299a5 5 0 0 1 0-7.071l21.68-21.68-13.379-13.379a5 5 0 0 0-7.071 0l-35.059 35.059a5 5 0 0 0 0 7.071l74.188 74.188c6.018 6.018 15.774 6.018 21.792 0l6.019-6.019z" opacity="1" data-original="#0681af" class="hovered-path"></path><path fill="#3692bc" d="M338 253c-29.775 0-54-24.224-54-54 0-5.581.851-10.967 2.43-16.035A118.253 118.253 0 0 0 256 179c-65.244 0-118.135 52.891-118.135 118.135 0 65.245 52.891 118.136 118.135 118.136s118.135-52.891 118.135-118.136c0-17.975-4.021-35.008-11.203-50.26A53.636 53.636 0 0 1 338 253z" opacity="1" data-original="#3692bc" class=""></path><path fill="#0681af" d="M217.454 374.335c-28.301-14.159-47.744-43.401-47.744-77.2s19.443-63.04 47.744-77.199c16.369-18.938 38.65-32.625 63.978-38.182A118.514 118.514 0 0 0 256 179c-65.244 0-118.135 52.891-118.135 118.135 0 65.245 52.891 118.136 118.135 118.136 8.732 0 17.24-.956 25.432-2.754-25.328-5.557-47.609-19.244-63.978-38.182z" opacity="1" data-original="#0681af" class="hovered-path"></path><path fill="#ffffff" d="M286.957 216.589A86.04 86.04 0 0 0 256 210.845c-47.657 0-86.29 38.634-86.29 86.29 0 47.657 38.633 86.29 86.29 86.29s86.29-38.633 86.29-86.29c0-16.388-4.569-31.709-12.501-44.759-19.985-3.061-36.383-17.124-42.832-35.787z" opacity="1" data-original="#ffffff" class=""></path><path fill="#eaf9fa" d="M203.419 297.135c0-41.887 29.85-76.793 69.435-84.633a86.662 86.662 0 0 0-16.855-1.657c-47.657 0-86.29 38.634-86.29 86.29 0 47.657 38.633 86.29 86.29 86.29a86.74 86.74 0 0 0 16.855-1.657c-39.585-7.84-69.435-42.745-69.435-84.633z" opacity="1" data-original="#eaf9fa"></path><path fill="#025f80" d="M338 253a53.705 53.705 0 0 1-19.383-3.612c10.135 13.259 16.173 29.808 16.173 47.748 0 43.445-35.345 78.79-78.79 78.79s-78.79-35.345-78.79-78.79 35.345-78.791 78.79-78.791a78.274 78.274 0 0 1 35.847 8.663 53.657 53.657 0 0 1-7.109-19.153 93.418 93.418 0 0 0-28.738-4.51c-51.716 0-93.79 42.074-93.79 93.791 0 51.716 42.074 93.79 93.79 93.79s93.79-42.074 93.79-93.79c0-15.954-4.009-30.988-11.064-44.154-.243.003-.483.018-.726.018z" opacity="1" data-original="#025f80" class=""></path><path fill="#fd6930" d="m281.536 297.135 21.529-21.529c3.905-3.905 3.905-10.237 0-14.142l-11.393-11.394c-3.905-3.905-10.237-3.905-14.142 0L256 271.6l-21.529-21.529c-3.905-3.905-10.237-3.905-14.142 0l-11.393 11.394c-3.905 3.905-3.905 10.237 0 14.142l21.529 21.529-21.529 21.529c-3.905 3.905-3.905 10.237 0 14.142l11.393 11.393c3.905 3.905 10.237 3.905 14.142 0L256 322.671l21.529 21.529c3.905 3.905 10.237 3.905 14.142 0l11.393-11.393c3.905-3.905 3.905-10.237 0-14.142z" opacity="1" data-original="#fd6930" class=""></path><path fill="#fd5426" d="M225.929 332.807c-3.905-3.905-3.905-10.237 0-14.142l17.993-17.993a5 5 0 0 0 0-7.071l-17.993-17.993c-3.905-3.905-3.905-10.237 0-14.142l9.968-9.968-1.426-1.426c-3.905-3.905-10.237-3.905-14.142 0l-11.393 11.394c-3.905 3.905-3.905 10.237 0 14.142l21.529 21.529-21.529 21.529c-3.905 3.905-3.905 10.237 0 14.142l11.394 11.394c3.905 3.905 10.237 3.905 14.142 0l1.426-1.426z" opacity="1" data-original="#fd5426" class=""></path><circle cx="338" cy="199" r="55" fill="#fd6930" opacity="1" data-original="#fd6930" class=""></circle><path fill="#fd5426" d="M315 199c0-24.809 16.43-45.775 39-52.628A54.967 54.967 0 0 0 338 144c-30.376 0-55 24.624-55 55s24.624 55 55 55c5.566 0 10.936-.834 16-2.372-22.57-6.853-39-27.819-39-52.628z" opacity="1" data-original="#fd5426" class=""></path><circle cx="312.5" cy="199" r="7.5" fill="#ffffff" opacity="1" data-original="#ffffff" class=""></circle><circle cx="338" cy="199" r="7.5" fill="#ffffff" opacity="1" data-original="#ffffff" class=""></circle><circle cx="363.5" cy="199" r="7.5" fill="#ffffff" opacity="1" data-original="#ffffff" class=""></circle></g></svg>