<svg xmlns="http://www.w3.org/2000/svg" version="1.1" xmlns:xlink="http://www.w3.org/1999/xlink" width="512" height="512" x="0" y="0" viewBox="0 0 256 256" style="enable-background:new 0 0 512 512" xml:space="preserve" class=""><g><path fill="#fedbb0" d="M219.82 19.27a10.541 10.541 0 0 0-10.54 10.54v196.38a10.55 10.55 0 0 1-10.55 10.54H46.72V29.81a10.55 10.55 0 0 1 10.55-10.54Z" opacity="1" data-original="#fedbb0" class=""></path><path fill="#d1ab86" d="M219.819 19.266h3.515a10.544 10.544 0 0 1 10.544 10.544v10.059a4 4 0 0 1-4 4h-20.6V29.81a10.544 10.544 0 0 1 10.541-10.544Z" opacity="1" data-original="#d1ab86"></path><path fill="#e8c197" d="M184.673 225.985v-10.058a4 4 0 0 0-4-4H26.122a4 4 0 0 0-4 4v9.9a10.88 10.88 0 0 0 10.707 10.903h162.388a10.717 10.717 0 0 1-10.544-10.745Z" opacity="1" data-original="#e8c197"></path><path fill="#827f7e" d="M183.886 199.607H72.114a3 3 0 0 1 0-6h111.772a3 3 0 0 1 0 6ZM183.886 182.53H72.114a3 3 0 0 1 0-6h111.772a3 3 0 0 1 0 6ZM183.886 165.453H72.114a3 3 0 0 1 0-6h111.772a3 3 0 0 1 0 6Z" opacity="1" data-original="#827f7e" class=""></path><circle cx="93.697" cy="65.7" r="14.514" fill="#827f7e" opacity="1" data-original="#827f7e" class=""></circle><path fill="#fcc171" d="M102.355 54.871a4.736 4.736 0 1 1-1.733 6.469 4.735 4.735 0 0 1 1.733-6.469Zm6.469 19.336a4.736 4.736 0 1 1-1.733-6.469 4.735 4.735 0 0 1 1.733 6.469ZM93.58 57.274a4.736 4.736 0 1 1 4.736-4.735 4.735 4.735 0 0 1-4.736 4.735Zm0-12.881a21.013 21.013 0 1 0 21.013 21.013A21.013 21.013 0 0 0 93.58 44.393ZM84.805 75.94a4.736 4.736 0 1 1 1.733-6.469 4.735 4.735 0 0 1-1.733 6.469Zm1.733-14.6a4.736 4.736 0 1 1-1.733-6.469 4.735 4.735 0 0 1 1.733 6.469Zm7.042 21.668a4.736 4.736 0 1 1 4.736-4.736 4.735 4.735 0 0 1-4.736 4.736Z" opacity="1" data-original="#fcc171" class=""></path><path fill="#e59a5c" d="M87.914 65.406a5.666 5.666 0 1 1 5.666 5.665 5.666 5.666 0 0 1-5.666-5.665Z" opacity="1" data-original="#e59a5c"></path><path fill="#fcc171" d="M91.592 65.406a1.988 1.988 0 1 1 1.988 1.987 1.988 1.988 0 0 1-1.988-1.987Z" opacity="1" data-original="#fcc171" class=""></path><circle cx="139.425" cy="65.7" r="14.514" fill="#827f7e" opacity="1" data-original="#827f7e" class=""></circle><path fill="#fcc171" d="M148.084 54.871a4.735 4.735 0 1 1-1.734 6.469 4.735 4.735 0 0 1 1.734-6.469Zm6.469 19.336a4.736 4.736 0 1 1-1.734-6.469 4.735 4.735 0 0 1 1.734 6.469Zm-15.244-16.933a4.736 4.736 0 1 1 4.735-4.735 4.735 4.735 0 0 1-4.735 4.735Zm0-12.881a21.013 21.013 0 1 0 21.012 21.013 21.013 21.013 0 0 0-21.012-21.013Zm-8.775 31.547a4.736 4.736 0 1 1 1.733-6.469 4.735 4.735 0 0 1-1.733 6.469Zm1.733-14.6a4.736 4.736 0 1 1-1.733-6.469 4.735 4.735 0 0 1 1.733 6.469Zm7.042 21.668a4.736 4.736 0 1 1 4.735-4.736 4.736 4.736 0 0 1-4.735 4.736Z" opacity="1" data-original="#fcc171" class=""></path><path fill="#e59a5c" d="M133.643 65.406a5.666 5.666 0 1 1 5.666 5.665 5.666 5.666 0 0 1-5.666-5.665Z" opacity="1" data-original="#e59a5c"></path><path fill="#fcc171" d="M137.321 65.406a1.988 1.988 0 1 1 1.988 1.987 1.988 1.988 0 0 1-1.988-1.987Z" opacity="1" data-original="#fcc171" class=""></path><path fill="#827f7e" d="m179.217 129.428-30.394-15.2a3.623 3.623 0 0 1 0-6.481l30.394-15.2a3.623 3.623 0 0 1 5.243 3.241v30.394a3.623 3.623 0 0 1-5.243 3.246Z" opacity="1" data-original="#827f7e" class=""></path><rect width="89.809" height="52.995" x="71.54" y="84.492" fill="#a3a09d" rx="3.236" opacity="1" data-original="#a3a09d" class=""></rect><path fill="#827f7e" d="M84.4 137.488h64.084v3.959a3.912 3.912 0 0 1-3.912 3.912H88.314a3.912 3.912 0 0 1-3.912-3.912v-3.959H84.4Z" opacity="1" data-original="#827f7e" class=""></path><circle cx="116.444" cy="110.99" r="19.865" fill="#fcc171" transform="rotate(-84.348 116.443 110.99)" opacity="1" data-original="#fcc171" class=""></circle><path fill="#c77b61" d="M110.137 119.88V102.1a1.476 1.476 0 0 1 2.339-1.2l12.332 8.888a1.476 1.476 0 0 1 0 2.395l-12.332 8.889a1.476 1.476 0 0 1-2.339-1.2Z" opacity="1" data-original="#c77b61"></path><path fill="#422618" d="M223.334 15.266H57.27A14.562 14.562 0 0 0 42.72 29.81v178.117h-16.6a8.009 8.009 0 0 0-8 8v9.9a14.824 14.824 0 0 0 14.709 14.903h165.9a14.562 14.562 0 0 0 14.55-14.54V47.869h16.6a8.009 8.009 0 0 0 8-8V29.81a14.561 14.561 0 0 0-14.545-14.544Zm10.544 24.6a4 4 0 0 1-4 4h-20.6V226.19a10.55 10.55 0 0 1-10.55 10.54H32.829a10.88 10.88 0 0 1-10.707-10.907v-9.9a4 4 0 0 1 4-4h20.6V29.81A10.55 10.55 0 0 1 57.27 19.27h166.064a10.544 10.544 0 0 1 10.544 10.54Z" opacity="1" data-original="#422618" class=""></path></g></svg>