<svg xmlns="http://www.w3.org/2000/svg" version="1.1" xmlns:xlink="http://www.w3.org/1999/xlink" width="512" height="512" x="0" y="0" viewBox="0 0 512 512" style="enable-background:new 0 0 512 512" xml:space="preserve" class="hovered-paths"><g><circle cx="256" cy="256" r="256" fill="#eab14d" opacity="1" data-original="#eab14d"></circle><path fill="#e49542" d="M256 0c-4.57 0-9.111.125-13.622.361C377.43 7.443 484.757 119.185 484.757 256S377.43 504.557 242.378 511.639c4.511.236 9.052.361 13.622.361 141.385 0 256-114.615 256-256S397.385 0 256 0z" opacity="1" data-original="#e49542"></path><circle cx="256" cy="256" r="199.487" fill="#f4fbff" opacity="1" data-original="#f4fbff" class="hovered-path"></circle><path fill="#daf1f4" d="M256 56.513c-5.525 0-10.994.235-16.405.675C342.094 65.532 422.678 151.351 422.678 256s-80.584 190.467-183.083 198.812c5.411.441 10.88.676 16.405.676 110.174 0 199.487-89.314 199.487-199.487S366.174 56.513 256 56.513z" opacity="1" data-original="#daf1f4"></path><path fill="#2b4d66" d="M256 117.911a7.726 7.726 0 0 1-7.726-7.726v-11.34a7.727 7.727 0 0 1 15.453 0v11.34a7.727 7.727 0 0 1-7.727 7.726zM358.687 160.794a7.726 7.726 0 0 1-5.463-13.19l8.019-8.018a7.726 7.726 0 1 1 10.926 10.927l-8.019 8.019a7.708 7.708 0 0 1-5.463 2.262zM412.315 263.727h-11.34a7.726 7.726 0 1 1 0-15.452h11.34a7.726 7.726 0 1 1 0 15.452zM366.11 374.433a7.708 7.708 0 0 1-5.464-2.263l-8.018-8.018a7.729 7.729 0 0 1 0-10.928 7.73 7.73 0 0 1 10.928 0l8.018 8.018a7.729 7.729 0 0 1-5.464 13.191zM255.158 420.043a7.726 7.726 0 0 1-7.726-7.726v-11.34a7.726 7.726 0 1 1 15.452 0v11.34a7.726 7.726 0 0 1-7.726 7.726zM144.452 373.837a7.7 7.7 0 0 1-5.463-2.264 7.726 7.726 0 0 1 0-10.927l8.019-8.018a7.727 7.727 0 0 1 10.926 10.928l-8.019 8.018a7.7 7.7 0 0 1-5.463 2.263zM110.183 262.886h-11.34a7.726 7.726 0 1 1 0-15.452h11.34a7.726 7.726 0 1 1 0 15.452zM153.067 160.199a7.701 7.701 0 0 1-5.463-2.263l-8.019-8.018a7.727 7.727 0 0 1 10.926-10.928l8.019 8.019a7.727 7.727 0 0 1-5.463 13.19zM256 263.727h-65.62a7.727 7.727 0 0 1 0-15.453h57.893v-98.297a7.726 7.726 0 1 1 15.452 0V256a7.725 7.725 0 0 1-7.725 7.727z" opacity="1" data-original="#2b4d66"></path><path fill="#da4a54" d="M335.266 304.491a7.697 7.697 0 0 1-3.527-.857l-79.272-40.764c-3.795-1.951-5.289-6.609-3.338-10.404s6.609-5.29 10.405-3.338l79.272 40.763a7.726 7.726 0 0 1 3.338 10.404 7.728 7.728 0 0 1-6.878 4.196z" opacity="1" data-original="#da4a54"></path><circle cx="256" cy="256" r="20.622" fill="#365e7d" opacity="1" data-original="#365e7d"></circle></g></svg>